<svg width="180" height="47" viewBox="0 0 180 47" fill="none" xmlns="http://www.w3.org/2000/svg">
<path d="M39.841 46.7699H6.92887C3.08786 46.7699 0 43.682 0 39.841V6.92888C0 3.08788 3.08786 0 6.92887 0H39.841C43.682 0 46.7699 3.08788 46.7699 6.92888V39.841C46.7699 43.682 43.6067 46.7699 39.841 46.7699Z" fill="white"/>
<path d="M23.0462 15.1381C23.0462 15.1381 27.6403 12.3515 30.4269 10.7699C33.2135 9.18835 34.7951 8.66115 36.3767 8.51053C37.9583 8.43521 39.7659 9.26366 39.7659 9.26366L34.7198 6.10049C34.7198 6.10049 34.042 5.6486 32.1592 5.87454C30.2763 6.10048 29.2972 6.62768 28.0922 7.23019C26.8872 7.90802 18.8286 12.6528 18.8286 12.6528L23.0462 15.1381Z" fill="#231815"/>
<path d="M35.0961 13.0293C35.0961 13.0293 37.4309 16.2678 35.6233 21.9917C33.8158 27.7155 29.5982 30.954 29.297 31.1799C29.071 31.4059 26.4351 32.9122 26.4351 32.9122L26.5104 37.431C26.5104 37.431 34.9455 34.4937 38.4853 26.3599C41.6484 19.205 39.615 15.364 38.0334 13.7071C37.1296 12.7281 35.0961 13.0293 35.0961 13.0293Z" fill="#231815"/>
<path d="M23.0462 37.3556L18.8286 34.8703V12.728L23.0462 15.1381V37.3556Z" fill="#231815"/>
<path d="M10.1673 30.8786L5.94971 28.3179V6.25098L10.092 8.58571L10.1673 30.8786Z" fill="#231815"/>
<path d="M5.94958 28.3181C5.94958 28.3181 4.89519 37.657 12.5019 41.0461C16.8701 43.0043 20.1086 41.8746 21.6148 40.3683C22.8199 39.1633 22.9705 37.3558 22.9705 37.3558L18.7529 34.7951C18.7529 34.7951 18.7529 35.6989 18.0751 36.3767C17.322 37.2052 16.1169 38.0336 13.4056 36.678C9.94121 34.8704 10.0918 30.8788 10.0918 30.8788L5.94958 28.3181Z" fill="#231815"/>
<path d="M10.092 8.58588L13.4811 6.85366L9.64008 4.74487L5.94971 6.25115L10.092 8.58588Z" fill="#231815"/>
<path d="M175.783 36.0752H177.44V36.4518H176.762V38.184H176.385V36.4518H175.708L175.783 36.0752Z" fill="white"/>
<path d="M177.741 36.0752H178.193L178.87 37.4309L179.548 36.0752H180V38.184H179.624V36.6777L178.946 37.958H178.72L178.042 36.6777V38.184H177.741V36.0752Z" fill="white"/>
<path d="M173.523 36.2259C173.523 36.979 173.523 37.5815 173.523 38.3346C170.435 38.3346 167.347 38.3346 164.335 38.3346C162.075 38.3346 162.075 38.3347 162.075 40.5188C162.075 43.7572 162.075 43.7572 165.238 43.7572C166.895 43.7572 168.552 43.6819 170.134 43.7572C171.339 43.8325 171.715 43.3807 171.565 42.251C171.489 41.5731 171.565 40.82 171.565 39.9915C172.318 39.9915 172.996 39.9915 173.899 39.9915C173.899 41.2719 173.975 42.4769 173.899 43.7572C173.824 45.0376 172.996 45.7907 171.791 45.866C168.477 45.9413 165.238 45.9413 161.924 45.866C160.418 45.866 159.665 44.8869 159.665 43.3807C159.665 41.8744 159.665 40.2928 159.665 38.7865C159.665 37.1296 160.418 36.3012 162 36.2259C165.841 36.1505 169.606 36.2259 173.523 36.2259Z" fill="white"/>
<path d="M56.7864 20.2593H59.1211V27.4894C59.1211 27.64 59.2718 27.7907 59.4224 27.7907H68.5354C68.686 27.7907 68.8366 27.64 68.8366 27.4894V20.2593H71.2467C71.2467 22.8953 71.322 25.4559 71.2467 28.0166C71.2467 29.2216 70.4182 29.9748 69.2885 29.9748C65.6734 30.0501 62.4349 30.0501 58.7446 29.9748C57.5395 29.9748 56.7864 29.1463 56.7864 27.866C56.7111 25.3806 56.7864 22.8199 56.7864 20.2593Z" fill="white"/>
<path d="M109.356 36.2258H111.69V43.3053C111.69 43.456 111.841 43.6066 111.992 43.6066H122.536V45.7907C122.536 45.7907 112.142 45.7907 112.067 45.7907C109.958 45.7907 109.28 44.9622 109.28 43.0794C109.356 41.0459 109.356 38.4852 109.356 36.2258Z" fill="white"/>
<path d="M139.707 36.3013C140.46 36.3013 141.063 36.3013 141.891 36.3013C141.891 39.4644 141.891 42.6276 141.891 45.8661C141.213 45.8661 140.535 45.8661 139.707 45.8661C139.707 42.6276 139.707 39.5398 139.707 36.3013Z" fill="white"/>
<path d="M104.31 24.9289C104.31 24.9289 104.686 24.3264 104.686 24.0251C105.138 22.2176 104.46 20.3347 102.653 20.2594C98.5858 20.1088 94.5188 20.1841 90.3013 20.1841C90.3013 23.4226 90.3013 26.5858 90.3013 29.8996C94.1423 29.8996 97.908 29.8996 101.674 29.8996C104.611 29.8996 105.063 27.7155 104.611 25.682C104.611 25.4561 104.31 24.9289 104.31 24.9289ZM101.824 27.7155L92.8619 27.7908V25.9833C92.8619 25.9833 100.167 25.9833 101.824 25.9833C101.975 25.9833 102.126 26.1339 102.126 26.2845V27.4142C102.126 27.5649 101.975 27.7155 101.824 27.7155ZM101.824 24.1757L92.8619 24.2511V22.4435C92.8619 22.4435 100.167 22.4435 101.824 22.4435C101.975 22.4435 102.126 22.5942 102.126 22.7448V23.8745C102.126 24.0251 101.975 24.1757 101.824 24.1757Z" fill="white"/>
<path d="M117.414 22.0668C116.661 20.5605 115.531 20.2593 114.025 20.2593C112.444 20.2593 111.389 20.5605 110.636 22.0668C110.636 22.0668 107.774 27.1881 106.117 29.9748H109.054L113.121 22.594C113.197 22.5187 113.272 22.4434 113.423 22.4434H114.778C114.854 22.4434 115.004 22.5187 115.08 22.594L119.146 29.9748C119.146 29.9748 121.331 29.9748 122.084 29.9748C120.276 27.1881 117.339 22.0668 117.414 22.0668Z" fill="white"/>
<path d="M137.448 20.2592H134.963C134.963 22.6692 134.963 25.0792 134.963 27.7905C134.963 27.7905 134.586 27.8659 134.059 27.414C132.778 26.2089 129.917 22.7445 129.54 22.3679C129.54 22.3679 129.54 22.2926 129.465 22.2926C129.239 21.9914 129.013 21.7654 128.937 21.6901C128.034 20.7863 127.507 20.3345 125.85 20.1838H123.666C123.666 23.1211 123.666 26.9621 123.666 29.8993H126.151C126.151 27.4893 126.151 25.0792 126.151 22.3679C126.151 22.3679 126.527 22.2926 127.055 22.7445C128.335 23.9495 131.197 27.414 131.573 27.7905C131.573 27.7905 131.573 27.8658 131.649 27.8658C131.875 28.1671 132.101 28.393 132.176 28.4684C133.08 29.3721 133.607 29.824 135.264 29.9746H137.448C137.448 27.0374 137.448 23.1964 137.448 20.2592Z" fill="white"/>
<path d="M71.1714 38.1088C71.1714 36.9791 70.343 36.3013 69.0626 36.3013C67.707 36.3013 66.276 36.3013 64.9204 36.3013C62.1338 36.3013 59.3472 36.3013 56.5605 36.3013C56.5605 39.5398 56.5605 42.6276 56.5605 45.8661C59.2718 45.8661 61.8325 45.8661 64.3932 45.8661C65.9748 45.8661 67.5564 45.8661 69.0626 45.8661C70.2677 45.8661 71.0961 45.113 71.1714 44.0586C71.1714 43.6067 71.1714 38.5607 71.1714 38.1088ZM68.8367 39.3891V42.7783V43.4561C68.8367 43.6067 68.6861 43.7573 68.5354 43.7573H59.1965C59.0459 43.7573 58.8953 43.6067 58.8953 43.4561V38.7866C58.8953 38.636 59.0459 38.4854 59.1965 38.4854H68.6861C68.8367 38.4854 68.8367 38.636 68.8367 38.7866V39.3891Z" fill="white"/>
<path d="M157.707 36.226H155.222C155.222 38.636 155.222 41.046 155.222 43.7573C155.222 43.7573 154.845 43.8326 154.318 43.3808C153.038 42.1757 150.176 38.7113 149.799 38.3347C149.799 38.3347 149.799 38.3347 149.724 38.2594C149.498 37.9582 149.272 37.7322 149.197 37.6569C148.293 36.7531 147.766 36.3013 146.109 36.1506H143.925C143.925 39.0879 143.925 42.9289 143.925 45.8661H146.41C146.41 43.4561 146.41 41.046 146.41 38.3347C146.41 38.3347 146.787 38.2594 147.314 38.7113C148.594 39.9163 151.456 43.3808 151.833 43.7573C151.833 43.7573 151.833 43.7573 151.908 43.8327C152.134 44.1339 152.36 44.3598 152.435 44.4352C153.339 45.3389 153.866 45.7908 155.523 45.9414H157.707C157.707 43.0042 157.707 39.1632 157.707 36.226Z" fill="white"/>
<path d="M89.6237 36.2258C89.2471 38.2593 88.6446 40.8953 88.1927 42.9288C88.1174 43.3806 87.9668 43.6819 87.5902 43.6819C87.1383 43.6819 87.1383 43.3806 86.9124 42.9288C86.9124 42.9288 85.4061 38.9371 84.653 37.2049C84.3517 36.5271 83.8998 36.2258 83.222 36.2258C82.9208 36.2258 82.6195 36.2258 82.3936 36.2258H82.3183H82.2429C82.017 36.2258 81.7158 36.2258 81.4145 36.2258C80.7367 36.2258 80.2848 36.5271 79.9835 37.2049C79.2304 38.9371 77.7241 42.9288 77.7241 42.9288C77.5735 43.3806 77.4982 43.6819 77.0463 43.6819C76.6697 43.6819 76.5191 43.3806 76.4438 42.9288C75.9919 40.82 75.4647 38.2593 75.0128 36.2258C74.1091 36.2258 73.3559 36.2258 72.4521 36.2258C73.0547 38.8618 73.6572 41.3472 74.1844 43.7572C74.4103 44.8116 74.7116 45.866 76.0672 45.7907C76.6697 45.7907 77.4982 45.7907 78.1007 45.7907C78.8538 45.7907 79.2304 45.2635 79.607 44.2091L81.7911 38.4099C82.017 37.8074 82.0923 37.7321 82.2429 37.7321C82.3936 37.7321 82.5442 37.8074 82.6948 38.4099L84.8789 44.2091C85.2555 45.2635 85.6321 45.7907 86.3852 45.7907C86.9877 45.7907 87.7409 45.7907 88.4187 45.7907C89.7743 45.7907 90.0756 44.8116 90.3015 43.7572C90.8287 41.3472 91.4312 38.7865 92.0337 36.2258C91.2806 36.2258 90.5275 36.2258 89.6237 36.2258Z" fill="white"/>
<path d="M106.494 40.2174H95.7238C95.4979 40.2174 95.3473 40.0667 95.3473 39.9161V38.7864C95.3473 38.6358 95.4979 38.4851 95.7238 38.4851C97.5314 38.4851 104.536 38.4851 106.494 38.4851H107.021C107.021 37.732 107.021 37.0542 107.021 36.3011C102.879 36.3011 98.8117 36.2257 94.6694 36.3764C92.9372 36.4517 92.4854 38.0333 92.4854 39.9914C92.4854 40.2927 92.4854 41.573 92.4854 41.8743C92.4854 43.9077 92.636 46.0165 95.5732 46.0165C99.3389 46.0165 103.105 46.0165 106.946 46.0165C106.946 45.2634 106.946 44.5103 106.946 43.8324H95.6485C95.4226 43.8324 95.272 43.6818 95.272 43.5312V42.2508C95.272 42.1002 95.4226 41.9496 95.6485 41.9496C97.682 41.9496 106.946 41.9496 106.946 41.9496C106.946 41.3471 106.946 40.7446 106.946 40.2174H106.494Z" fill="white"/>
<path d="M124.268 36.2258H126.602V43.3053C126.602 43.456 126.753 43.6066 126.904 43.6066H137.448V45.7907C137.448 45.7907 127.054 45.7907 126.979 45.7907C124.87 45.7907 124.192 44.9622 124.192 43.0794C124.268 41.0459 124.268 38.4852 124.268 36.2258Z" fill="white"/>
<path d="M84.0501 26.2092H85.1798C87.2133 26.1339 87.4393 25.0795 87.4393 23.272C87.4393 21.6151 86.9874 20.41 85.1045 20.3347H75.2384H72.979V30.0502H75.2384V26.2845H80.7363L84.8033 30.0502H87.9665C87.9665 29.9749 84.0501 26.2092 84.0501 26.2092ZM75.3137 24.1757V22.3682C75.9162 22.3682 82.7698 22.3682 84.3514 22.3682C84.502 22.3682 84.6526 22.5188 84.6526 22.6694V23.7992C84.6526 23.9498 84.502 24.1004 84.3514 24.1004L75.3137 24.1757Z" fill="white"/>
</svg>
