<svg width="45" height="14" viewBox="0 0 45 14" fill="none" xmlns="http://www.w3.org/2000/svg">
<g clip-path="url(#clip0_1032_291)">
<path d="M44.9985 13.7257V13.807H41.6259C41.4793 13.1234 41.3357 12.4539 41.1914 11.7804H36.5073C36.2532 12.4547 35.9988 13.1302 35.7463 13.7997H31.9282C31.9482 13.7479 31.9628 13.7063 31.9806 13.6656C33.4046 10.3945 34.8286 7.12344 36.2532 3.8526C36.6255 2.99767 36.9973 2.14219 37.3741 1.28888C37.5224 0.953191 37.747 0.674891 38.0822 0.490531C38.4131 0.308607 38.7767 0.249319 39.1505 0.247154C40.0884 0.242281 41.0267 0.244717 41.9647 0.244988C41.9962 0.244988 42.0278 0.250944 42.0612 0.254192C42.3753 1.70119 42.6877 3.14223 43.0004 4.58327C43.3246 6.07737 43.6491 7.57148 43.973 9.06585C44.2682 10.4278 44.5626 11.7901 44.8589 13.1518C44.9008 13.344 44.9515 13.5343 44.9982 13.7255L44.9985 13.7257ZM37.5638 8.99898H40.5888C40.2263 7.30888 39.8661 5.62771 39.5006 3.92353C38.8519 5.62311 38.2116 7.30157 37.5638 8.99898Z" fill="white"/>
<path d="M30.0296 0C30.1616 0.0170553 30.293 0.03763 30.4256 0.0506246C31.1888 0.12426 31.9293 0.290753 32.6472 0.550644C32.6646 0.556871 32.6807 0.566346 32.7161 0.583401C32.5526 1.54933 32.3885 2.52094 32.2236 3.49607C31.9627 3.39374 31.7145 3.28897 31.461 3.19855C30.5483 2.87288 29.6047 2.77704 28.6405 2.87477C28.2319 2.91619 27.8415 3.02611 27.5067 3.27219C27.3113 3.41594 27.1687 3.59516 27.1045 3.82689C27.0232 4.12171 27.116 4.37943 27.3302 4.58247C27.5188 4.76115 27.7264 4.93143 27.9536 5.06002C28.4168 5.32262 28.8955 5.56004 29.3731 5.798C30.055 6.13776 30.6986 6.52705 31.2316 7.06741C31.7356 7.57853 32.0686 8.1752 32.1597 8.87825C32.2605 9.65522 32.1389 10.4065 31.8054 11.1214C31.3543 12.0887 30.5905 12.7625 29.623 13.2382C28.9374 13.5752 28.2082 13.7845 27.4481 13.8877C27.0637 13.9399 26.675 13.9635 26.2884 14C26.0247 14 25.761 14.0003 25.4973 14.0005C24.4453 13.9564 23.4094 13.8148 22.4024 13.5097C22.1942 13.4466 21.9907 13.3684 21.7808 13.2956C21.9527 12.2712 22.1216 11.2641 22.2921 10.2476C22.537 10.3534 22.766 10.4541 22.9965 10.5518C23.6331 10.8212 24.288 11.0345 24.982 11.1122C25.6442 11.1864 26.3078 11.2354 26.9691 11.1014C27.2739 11.0397 27.5643 10.9401 27.823 10.7703C28.1973 10.525 28.4131 10.1977 28.3729 9.74483C28.3537 9.52988 28.2564 9.34876 28.1134 9.18742C27.9006 8.94729 27.6378 8.76455 27.3547 8.61349C26.9128 8.37796 26.4609 8.16031 26.0159 7.92992C25.3363 7.57772 24.6963 7.17326 24.1723 6.61774C23.4904 5.89492 23.2079 5.0519 23.3219 4.07948C23.4634 2.87315 24.078 1.93862 25.0751 1.22338C25.851 0.666783 26.7327 0.339483 27.6772 0.166493C28.0259 0.102603 28.3816 0.0728236 28.734 0.0262598C28.7539 0.0235526 28.7722 0.00947519 28.7914 0.000812159C29.2042 0.000812159 29.6168 0 30.0296 0Z" fill="white"/>
<path d="M0 0.459904C0.0219512 0.392224 0.043621 0.324544 0.0697936 0.244141C0.115103 0.244141 0.166041 0.244141 0.216698 0.244141C2.08818 0.244141 3.95966 0.244141 5.83086 0.244141C6.10919 0.244141 6.38358 0.273649 6.64812 0.357572C7.16341 0.520816 7.45947 0.877895 7.56923 1.37683C7.70882 2.01086 7.83349 2.64786 7.96379 3.28378C8.14672 4.1758 8.32852 5.0681 8.51145 5.96012C8.60826 6.43252 8.70647 6.90493 8.803 7.37733C8.81116 7.41686 8.80976 7.45801 8.81285 7.49835C8.79456 7.46234 8.77345 7.42742 8.75826 7.39006C8.49006 6.73004 8.14925 6.10603 7.74287 5.51559C6.86989 4.247 5.75629 3.21177 4.44034 2.3747C4.24615 2.25126 4.04099 2.14378 3.8409 2.029C3.61829 1.90663 3.39991 1.77587 3.17223 1.66298C2.19962 1.18056 1.17861 0.820503 0.122702 0.550595C0.0835835 0.540579 0.0410882 0.544098 0 0.54112C0 0.514048 0 0.486976 0 0.459904Z" fill="white" fill-opacity="0.5"/>
<path d="M3.84061 2.02914C4.04071 2.14393 4.24587 2.2514 4.44005 2.37485C5.75628 3.21192 6.86988 4.24715 7.74258 5.51574C8.14896 6.10645 8.48977 6.73019 8.75797 7.39021C8.77317 7.42757 8.79427 7.46249 8.81256 7.49849C8.92401 8.01394 9.03545 8.52966 9.1469 9.04512C9.17645 9.18156 9.20515 9.31827 9.24146 9.4891C10.4375 6.39098 11.6223 3.32291 12.8085 0.250244H16.661C16.5915 0.417007 16.5248 0.579439 16.4564 0.741059C14.6384 5.03846 12.8206 9.33614 11.0015 13.6333C10.9219 13.8212 10.9688 13.7892 10.764 13.7895C9.59155 13.7908 8.41885 13.79 7.24643 13.79H7.0818C7.01003 13.5339 6.93883 13.2832 6.8696 13.0323C5.93527 9.64314 5.00121 6.25427 4.06744 2.86513C3.99061 2.58656 3.91604 2.30771 3.84033 2.02887L3.84061 2.02914Z" fill="white"/>
<path d="M19.5027 13.8004H15.8574C16.6173 9.28127 17.3757 4.76999 18.1353 0.251953H21.7806C21.0213 4.7681 20.2623 9.28208 19.5027 13.8004Z" fill="white"/>
</g>
<defs>
<clipPath id="clip0_1032_291">
<rect width="45" height="14" fill="white"/>
</clipPath>
</defs>
</svg>
