<svg width="49" height="29" viewBox="0 0 49 29" fill="none" xmlns="http://www.w3.org/2000/svg">
<path d="M48.7622 14.5C48.7622 22.4564 42.293 29 34.2622 29C26.3058 29 19.7622 22.4564 19.7622 14.5C19.7622 6.54359 26.2314 0 34.1878 0C42.293 0 48.7622 6.54359 48.7622 14.5Z" fill="#717171"/>
<path d="M29.3544 14.5744C29.3544 13.5333 29.2056 12.4923 29.0569 11.5256H20.1338C20.2082 11.0051 20.3569 10.559 20.5056 9.9641H28.462C28.3133 9.44359 28.0903 8.92308 27.8672 8.40256H21.1005C21.3236 7.88205 21.621 7.4359 21.9185 6.84103H27.0492C26.7518 6.32051 26.38 5.8 25.9338 5.27949H23.1082C23.5544 4.75897 24.0005 4.31282 24.5954 3.79231C22.0672 1.41282 18.6467 0 14.8544 0C6.9723 0.223077 0.428711 6.54359 0.428711 14.5C0.428711 22.4564 6.89794 29 14.9287 29C18.721 29 22.0672 27.5128 24.6697 25.2077C25.1903 24.7615 25.6364 24.241 26.1569 23.6462H23.1826C22.8108 23.2 22.439 22.6795 22.1415 22.159H27.1979C27.4954 21.7128 27.7928 21.1923 28.0159 20.5974H21.2492C21.0261 20.1513 20.8031 19.6308 20.6544 19.0359H28.6108C29.0569 17.6974 29.3544 16.2103 29.3544 14.5744Z" fill="#4D4D4D"/>
<path d="M20.0618 18.2178L20.2849 16.8794C20.2105 16.8794 20.0618 16.9537 19.9131 16.9537C19.3926 16.9537 19.3182 16.6563 19.3926 16.5076L19.8387 13.8307H20.6567L20.8798 12.3435H20.1362L20.2849 11.4512H18.7234C18.7234 11.4512 17.8311 16.5076 17.8311 17.1025C17.8311 17.9948 18.3516 18.4409 19.0952 18.4409C19.5413 18.4409 19.9131 18.2922 20.0618 18.2178Z" fill="white"/>
<path d="M20.582 15.7642C20.582 17.9206 22.0692 18.4411 23.259 18.4411C24.3743 18.4411 24.8949 18.218 24.8949 18.218L25.1923 16.7309C25.1923 16.7309 24.3743 17.1027 23.5564 17.1027C21.8461 17.1027 22.1436 15.8386 22.1436 15.8386H25.2666C25.2666 15.8386 25.4897 14.8719 25.4897 14.4257C25.4897 13.4591 24.9692 12.195 23.259 12.195C21.7718 12.1206 20.582 13.8309 20.582 15.7642ZM23.259 13.5334C24.0769 13.5334 23.9282 14.5001 23.9282 14.5745H22.2179C22.2923 14.5001 22.441 13.5334 23.259 13.5334Z" fill="white"/>
<path d="M32.9982 18.218L33.2957 16.5078C33.2957 16.5078 32.5521 16.8796 31.9572 16.8796C30.9162 16.8796 30.3957 16.0616 30.3957 15.0949C30.3957 13.236 31.288 12.2693 32.4034 12.2693C33.1469 12.2693 33.8162 12.7155 33.8162 12.7155L34.0393 11.0796C34.0393 11.0796 33.1469 10.7078 32.2546 10.7078C30.47 10.7078 28.7598 12.2693 28.7598 15.1693C28.7598 17.1026 29.6521 18.3667 31.511 18.3667C32.1803 18.4411 32.9982 18.218 32.9982 18.218Z" fill="white"/>
<path d="M11.6578 12.1201C10.6168 12.1201 9.79884 12.4176 9.79884 12.4176L9.57576 13.756C9.57576 13.756 10.245 13.4586 11.286 13.4586C11.8065 13.4586 12.2527 13.5329 12.2527 13.9791C12.2527 14.2765 12.1783 14.3509 12.1783 14.3509H11.5091C10.1706 14.3509 8.75781 14.8714 8.75781 16.656C8.75781 18.0688 9.65012 18.3663 10.245 18.3663C11.286 18.3663 11.8065 17.697 11.8809 17.697L11.8065 18.2919H13.0706L13.6655 14.0535C13.6655 12.1945 12.1783 12.1201 11.6578 12.1201ZM11.9552 15.5406C11.9552 15.7637 11.8065 17.0278 10.9142 17.0278C10.4681 17.0278 10.3194 16.656 10.3194 16.4329C10.3194 16.0611 10.5424 15.5406 11.7322 15.5406C11.8809 15.5406 11.9552 15.5406 11.9552 15.5406Z" fill="white"/>
<path d="M15.1529 18.3664C15.5247 18.3664 17.458 18.4408 17.458 16.3587C17.458 14.4254 15.5991 14.7972 15.5991 14.0536C15.5991 13.6818 15.8965 13.5331 16.417 13.5331C16.6401 13.5331 17.458 13.6074 17.458 13.6074L17.6811 12.1946C17.6811 12.1946 17.1606 12.0459 16.1939 12.0459C15.0786 12.0459 13.8888 12.4921 13.8888 14.0536C13.8888 15.8382 15.8222 15.6895 15.8222 16.3587C15.8222 16.8049 15.3016 16.8792 14.9298 16.8792C14.2606 16.8792 13.517 16.6562 13.517 16.6562L13.2939 18.069C13.4427 18.2177 13.8888 18.3664 15.1529 18.3664Z" fill="white"/>
<path d="M45.7856 10.9307L45.4882 13.0127C45.4882 13.0127 44.8933 12.2691 44.001 12.2691C42.5882 12.2691 41.3984 13.9794 41.3984 15.9871C41.3984 17.2512 41.9933 18.5153 43.3318 18.5153C44.2241 18.5153 44.819 17.9204 44.819 17.9204L44.7446 18.4409H46.3061L47.4215 11.0794L45.7856 10.9307ZM45.042 14.946C45.042 15.764 44.6702 16.8794 43.7779 16.8794C43.2574 16.8794 42.96 16.4332 42.96 15.6153C42.96 14.3512 43.4805 13.6076 44.2241 13.6076C44.7446 13.6819 45.042 14.0537 45.042 14.946Z" fill="white"/>
<path d="M3.25378 18.2922L4.14609 12.7896L4.29481 18.2922H5.33583L7.34352 12.7896L6.52558 18.2922H8.16147L9.42558 10.9307H6.89737L5.33583 15.4666L5.26147 10.9307H3.0307L1.7666 18.2922H3.25378Z" fill="white"/>
<path d="M27.0501 18.2926C27.4963 15.7644 27.5706 13.6824 28.686 14.0541C28.8347 13.0875 29.0578 12.6413 29.2065 12.2695H28.9091C28.2398 12.2695 27.645 13.1618 27.645 13.1618L27.7937 12.3439H26.3065L25.3398 18.2926H27.0501Z" fill="white"/>
<path d="M36.5689 12.1201C35.5279 12.1201 34.71 12.4176 34.71 12.4176L34.4869 13.756C34.4869 13.756 35.1561 13.4586 36.1971 13.4586C36.7177 13.4586 37.1638 13.5329 37.1638 13.9791C37.1638 14.2765 37.0895 14.3509 37.0895 14.3509H36.4202C35.0818 14.3509 33.6689 14.8714 33.6689 16.656C33.6689 18.0688 34.5613 18.3663 35.1561 18.3663C36.1972 18.3663 36.7177 17.697 36.792 17.697L36.7177 18.2919H38.1305L38.7254 14.0535C38.7254 12.1945 37.0895 12.1201 36.5689 12.1201ZM36.9407 15.5406C36.9407 15.7637 36.792 17.0278 35.8997 17.0278C35.4536 17.0278 35.3048 16.656 35.3048 16.4329C35.3048 16.0611 35.5279 15.5406 36.7177 15.5406C36.8664 15.5406 36.8664 15.5406 36.9407 15.5406Z" fill="white"/>
<path d="M39.9153 18.2926C40.3615 15.7644 40.4358 13.6824 41.5512 14.0541C41.6999 13.0875 41.923 12.6413 42.0717 12.2695H41.7743C41.1051 12.2695 40.5102 13.1618 40.5102 13.1618L40.6589 12.3439H39.1717L38.2051 18.2926H39.9153Z" fill="white"/>
</svg>
